<?xml version="1.0" standalone="no"?>
<!DOCTYPE svg PUBLIC "-//W3C//DTD SVG 20010904//EN"
 "http://www.w3.org/TR/2001/REC-SVG-20010904/DTD/svg10.dtd">
<svg version="1.0" xmlns="http://www.w3.org/2000/svg"
 width="500.000000pt" height="500.000000pt" viewBox="0 0 500.000000 500.000000"
 preserveAspectRatio="xMidYMid meet">

<g transform="translate(0.000000,500.000000) scale(0.100000,-0.100000)"
fill="#000000" stroke="none">
<path d="M1140 2759 l0 -230 38 3 37 3 3 78 c2 58 6 77 17 77 19 0 25 -13 45
-89 16 -65 17 -66 53 -69 44 -4 44 -2 18 90 -19 65 -19 67 0 84 17 15 19 32
19 131 0 150 -3 153 -135 153 l-95 0 0 -231z m149 147 c7 -9 11 -40 9 -78 l-3
-63 -37 -3 -38 -3 0 80 0 81 29 0 c16 0 34 -6 40 -14z"/>
<path d="M1525 2978 c-5 -14 -95 -435 -95 -444 0 -3 17 -4 37 -2 35 3 38 5 46
46 l8 42 54 0 54 0 7 -45 c6 -44 7 -45 45 -45 22 0 39 1 39 3 0 1 -22 103 -49
227 l-48 225 -47 3 c-31 2 -48 -1 -51 -10z m85 -275 c0 -8 -13 -13 -35 -13
-41 0 -40 -2 -20 103 8 43 15 82 16 85 1 9 38 -159 39 -175z"/>
<path d="M1760 2956 c0 -33 2 -35 38 -38 l37 -3 3 -192 2 -193 35 0 35 0 0
189 0 190 38 3 c35 3 37 5 40 41 l3 37 -115 0 -116 0 0 -34z"/>
<path d="M2040 2760 l0 -231 113 3 112 3 0 35 0 35 -77 3 -78 3 0 54 0 55 60
0 60 0 0 40 0 40 -60 0 -60 0 0 55 0 54 78 3 77 3 0 35 0 35 -112 3 -113 3 0
-231z"/>
<path d="M2325 2978 c-3 -8 -4 -110 -3 -228 l3 -215 38 -3 37 -3 1 138 1 138
30 -138 c30 -135 32 -138 56 -135 24 3 27 10 53 126 15 68 30 126 33 129 3 4
6 -53 6 -125 l0 -132 35 0 35 0 0 230 0 230 -48 0 -49 0 -28 -127 c-15 -71
-31 -134 -34 -141 -4 -7 -21 49 -37 125 l-30 138 -47 3 c-32 2 -49 -1 -52 -10z"/>
<path d="M2690 2986 c0 -2 25 -63 55 -135 54 -128 55 -133 55 -226 l0 -96 38
3 37 3 6 110 c5 103 8 117 52 219 26 60 47 113 47 117 0 5 -17 9 -38 9 l-38 0
-29 -81 c-16 -44 -33 -83 -36 -85 -4 -2 -20 33 -36 79 l-30 82 -42 3 c-22 2
-41 1 -41 -2z"/>
<path d="M3024 2977 c-2 -7 -3 -109 -2 -227 l3 -215 38 -3 37 -3 1 138 1 138
15 -65 c46 -202 47 -205 70 -208 25 -4 24 -6 57 146 13 63 27 116 30 119 3 4
6 -55 6 -130 l0 -137 35 0 35 0 0 231 0 230 -47 -3 -48 -3 -32 -135 c-17 -74
-32 -139 -33 -145 -1 -5 -14 44 -29 110 -15 66 -31 132 -34 148 -7 24 -12 27
-53 27 -27 0 -47 -5 -50 -13z"/>
<path d="M3410 2760 l0 -230 89 0 c73 0 93 3 112 19 24 19 24 22 24 211 0 189
0 192 -24 211 -19 16 -39 19 -112 19 l-89 0 0 -230z m148 6 c3 -159 1 -166
-45 -166 -23 0 -23 1 -23 161 l0 160 33 -3 32 -3 3 -149z"/>
<path d="M1879 2385 c-36 -20 -46 -61 -21 -94 25 -35 67 -39 98 -10 28 27 31
59 7 87 -25 28 -53 34 -84 17z"/>
<path d="M2096 2379 c-55 -43 -20 -133 50 -127 19 2 34 8 34 13 -1 6 -10 9
-21 8 -32 -4 -59 15 -59 42 0 44 10 55 51 55 40 0 52 13 23 24 -28 11 -51 6
-78 -15z"/>
<path d="M2320 2380 c-45 -45 -13 -130 49 -130 34 0 71 39 71 75 0 62 -78 97
-120 55z m82 -24 c13 -19 9 -54 -8 -70 -20 -21 -30 -20 -54 4 -25 25 -25 45 0
70 20 20 47 18 62 -4z"/>
<path d="M2567 2394 c-4 -4 -7 -38 -7 -76 0 -51 3 -69 13 -66 6 3 15 24 18 49
3 24 7 39 7 33 1 -5 9 -19 17 -30 14 -18 15 -18 39 11 l25 30 1 -47 c0 -27 5
-48 10 -48 6 0 10 32 10 75 0 41 -4 75 -9 75 -5 0 -19 -16 -31 -35 -20 -32
-40 -46 -40 -27 0 14 -45 63 -53 56z"/>
</g>
</svg>
